<svg width="20.000000" height="30.000000" viewBox="0 0 20 30" fill="none" xmlns="http://www.w3.org/2000/svg" xmlns:xlink="http://www.w3.org/1999/xlink">
	<desc>
			Created with Pixso.
	</desc>
	<defs/>
	<path id="path" d="M17.44 0.12C16.95 0.31 0.3 14.08 0.12 14.44C-0.05 14.78 -0.05 15.2 0.12 15.54C0.28 15.87 16.93 29.65 17.41 29.86C18 30.11 18.94 30 19.42 29.62C19.97 29.21 20.16 28.4 19.83 27.88C19.75 27.75 16.24 24.79 12.04 21.31L4.38 14.99L12.04 8.67C16.24 5.19 19.75 2.24 19.83 2.1C20.2 1.5 19.92 0.66 19.2 0.24C18.72 -0.03 17.96 -0.09 17.44 0.12Z" fill="#363636" fill-opacity="1.000000" fill-rule="nonzero"/>
	<path id="path" d="M0.12 14.44C-0.05 14.78 -0.05 15.2 0.12 15.54C0.28 15.87 16.93 29.65 17.41 29.86C18 30.11 18.94 30 19.42 29.62C19.97 29.21 20.16 28.4 19.83 27.88C19.75 27.75 16.24 24.79 12.04 21.31L4.38 14.99L12.04 8.67C16.24 5.19 19.75 2.24 19.83 2.1C20.2 1.5 19.92 0.66 19.2 0.24C18.72 -0.03 17.96 -0.09 17.44 0.12C16.95 0.31 0.3 14.08 0.12 14.44Z" stroke="#000000" stroke-opacity="0" stroke-width="0.133333"/>
</svg>
