<svg width="40.000000" height="40.000000" viewBox="0 0 40 40" fill="none" xmlns="http://www.w3.org/2000/svg" xmlns:xlink="http://www.w3.org/1999/xlink">
	<desc>
			Created with Pixso.
	</desc>
	<defs/>
	<path id="path" d="M5.48 0.1C3.01 0.54 1.13 1.89 0.27 3.84L0 4.47L0 19.99L0 35.51L0.27 36.14C1.35 38.61 4.18 40.15 7.34 39.98C9.1 39.89 10.52 39.37 11.84 38.33C12.46 37.83 12.72 37.56 13.07 36.98C13.95 35.58 13.88 37.04 13.88 19.99C13.88 2.94 13.95 4.4 13.07 3C12.28 1.72 10.73 0.68 8.99 0.24C7.98 -0.02 6.46 -0.08 5.48 0.1Z" fill="#363636" fill-opacity="1.000000" fill-rule="nonzero"/>
	<path id="path" d="M0.27 3.84L0 4.47L0 19.99L0 35.51L0.27 36.14C1.35 38.61 4.18 40.15 7.34 39.98C9.1 39.89 10.52 39.37 11.84 38.33C12.46 37.83 12.72 37.56 13.07 36.98C13.95 35.58 13.88 37.04 13.88 19.99C13.88 2.94 13.95 4.4 13.07 3C12.28 1.72 10.73 0.68 8.99 0.24C7.98 -0.02 6.46 -0.08 5.48 0.1C3.01 0.54 1.13 1.89 0.27 3.84Z" stroke="#000000" stroke-opacity="0" stroke-width="0.133333"/>
	<path id="path" d="M31.87 0.05C30.47 0.25 29.28 0.77 28.15 1.65C27.53 2.15 27.28 2.42 26.92 3C26.04 4.4 26.11 2.94 26.11 19.99C26.11 37.04 26.04 35.58 26.92 36.98C27.71 38.25 29.24 39.29 31 39.75C31.66 39.92 31.96 39.95 33 39.96C34.38 39.97 35.07 39.85 36.14 39.43C37.84 38.76 39.06 37.65 39.72 36.14L40 35.51L40 19.99L40 4.47L39.72 3.84C38.9 2 37.16 0.66 34.91 0.17C34.21 0.02 32.56 -0.04 31.87 0.05Z" fill="#363636" fill-opacity="1.000000" fill-rule="nonzero"/>
	<path id="path" d="M28.15 1.65C27.53 2.15 27.28 2.42 26.92 3C26.04 4.4 26.11 2.94 26.11 19.99C26.11 37.04 26.04 35.58 26.92 36.98C27.71 38.25 29.24 39.29 31 39.75C31.66 39.92 31.96 39.95 33 39.96C34.38 39.97 35.07 39.85 36.14 39.43C37.84 38.76 39.06 37.65 39.72 36.14L40 35.51L40 19.99L40 4.47L39.72 3.84C38.9 2 37.16 0.66 34.91 0.17C34.21 0.02 32.56 -0.04 31.87 0.05C30.47 0.25 29.28 0.77 28.15 1.65Z" stroke="#000000" stroke-opacity="0" stroke-width="0.133333"/>
</svg>
