<svg xmlns="http://www.w3.org/2000/svg"  viewBox="0 0 24 24" width="40px" height="40px"><path d="M20.172,7.288c-0.397-0.566-1.179-0.699-1.742-0.303c-0.564,0.397-0.7,1.177-0.303,1.742	c0.886,1.259,1.354,2.743,1.354,4.29c0,4.116-3.35,7.465-7.466,7.465s-7.465-3.349-7.465-7.465c0-4.015,3.187-7.29,7.162-7.451	l-0.288,0.247C10.9,6.262,10.84,7.051,11.289,7.575c0.247,0.289,0.598,0.437,0.95,0.437c0.287,0,0.577-0.099,0.812-0.301	l2.798-2.397c0.257-0.22,0.413-0.535,0.435-0.873c0.021-0.338-0.097-0.669-0.325-0.919l-2.802-3.066	c-0.468-0.511-1.259-0.545-1.766-0.08c-0.51,0.466-0.546,1.256-0.08,1.766l0.835,0.914c-0.044-0.001-0.088-0.005-0.131-0.005	c-5.495,0-9.965,4.471-9.965,9.966s4.47,9.965,9.965,9.965s9.966-4.47,9.966-9.965C21.981,10.951,21.355,8.971,20.172,7.288z"/></svg>